<svg width="48" height="30" viewBox="0 0 48 30" fill="none" xmlns="http://www.w3.org/2000/svg">
<g clip-path="url(#clip0_1802_326)">
<path d="M0.831787 30H47.9982V0H0.831787V30Z" fill="black"/>
<path d="M1.37793 29.462H47.4955V0.546143H1.37793V29.462Z" fill="white"/>
<path d="M11.5503 16.5633L12.4425 17.588L13.3644 16.5701H14.103V16.8847L12.9477 18.1644L14.103 19.5328V16.5701H16.1883C16.5827 16.5701 17.161 16.7528 17.161 17.5719C17.161 18.7211 16.4001 18.7347 15.9834 18.7347H14.9005V19.8473H13.357L12.414 18.757L11.4481 19.8392H8.37905V16.5627H11.5503V16.5633V16.5633ZM20.9978 16.5633H23.6279V17.2698H21.8027V17.8834H23.5772V18.505H21.8027V19.1538H23.6279V19.8398H20.9978V16.5633V16.5633ZM18.3467 19.8479H17.5418V16.5708H19.6339C20.0295 16.5708 20.5997 16.7466 20.5997 17.4481C20.5997 17.8443 20.4827 18.136 20.0437 18.3558C20.4239 18.3997 20.5706 18.6486 20.5706 19.1749L20.5997 19.8479H19.8165L19.7948 19.2473C19.788 18.97 19.6778 18.692 19.4004 18.692H18.3467V19.8479V19.8479ZM28.6789 17.8406C29.6689 17.8902 29.7507 18.3849 29.7507 18.9111C29.7507 19.5253 29.2461 19.8547 28.7192 19.8547H27.0295V19.1532H28.3464C28.57 19.1532 28.9024 19.1532 28.9024 18.8375C28.9024 18.6876 28.8436 18.5929 28.6059 18.5669C28.4211 18.5489 28.2359 18.5361 28.0505 18.5285C27.1571 18.505 26.9497 18.061 26.9497 17.5199C26.9497 16.9057 27.3812 16.5695 27.9081 16.5695H29.5977V17.2723H28.3613C28.0802 17.276 27.7762 17.2388 27.7762 17.5577C27.7762 17.7583 27.9267 17.7985 28.1161 17.8177C28.1818 17.8183 28.6207 17.8406 28.6789 17.8406V17.8406ZM25.6649 17.8406C26.6543 17.8902 26.7367 18.3849 26.7367 18.9111C26.7367 19.5253 26.2314 19.8547 25.7052 19.8547H24.0149V19.1532H25.3318C25.5547 19.1532 25.8884 19.1532 25.8884 18.8375C25.8884 18.6876 25.8296 18.5929 25.5919 18.5669C25.4854 18.552 25.0941 18.5297 25.0365 18.5285C24.1431 18.505 23.9357 18.061 23.9357 17.5199C23.9357 16.9057 24.3672 16.5695 24.8935 16.5695H26.5837V17.2723H25.3473C25.0656 17.276 24.7622 17.2388 24.7622 17.5577C24.7622 17.7583 24.9121 17.7985 25.1027 17.8177C25.1678 17.8183 25.6067 17.8406 25.6649 17.8406V17.8406ZM15.0615 14.2149H14.2566V10.9378H16.3487C16.7437 10.9378 17.3152 11.1136 17.3152 11.8151C17.3152 12.2108 17.1981 12.5036 16.7592 12.7228C17.1393 12.7667 17.2861 13.0156 17.2861 13.5419L17.3152 14.2149H16.5326L16.5103 13.615C16.5028 13.337 16.3939 13.0596 16.1153 13.0596H15.0621V14.2149H15.0615V14.2149ZM17.725 14.2149H18.5293V10.9341H17.725V14.2149ZM11.1658 10.9378H13.7953V11.6436H11.9719V12.2584H13.7452V12.8807H11.9719V13.5277H13.7953V14.2149H11.1658V10.9378V10.9378ZM5.29324 14.2149H6.91354V11.7829L7.98837 14.2149H8.7202L9.82042 11.8232V14.2149H10.6247V10.9378H9.3412L8.35367 13.1364L7.36985 10.9378H6.10803V14.0942L4.70319 10.9378H3.6395L2.20557 14.2149H3.05441L3.36832 13.4837H4.97376L5.29324 14.2149V14.2149ZM23.1593 13.4856H21.5544L21.2399 14.2168H20.1787C19.2865 14.2168 18.8909 13.4689 18.9101 12.5618C18.9373 11.2158 19.7329 10.9359 20.0988 10.9359H21.1489V11.6492H20.6517C20.1174 11.6492 19.7007 11.7049 19.7007 12.4727V12.7104C19.7044 13.2881 20.0072 13.4249 20.201 13.4651C20.2487 13.4763 20.3366 13.4806 20.3688 13.4781L20.7167 13.4763L21.825 10.9378H22.8899L24.2613 14.0137V10.9359H25.4495L26.8066 13.2051V10.9359H27.6109V14.2168H26.5138L25.0656 11.817V14.2168H23.4781L23.1593 13.4856V13.4856Z" fill="#00ACEC"/>
<path d="M29.6045 16.0593V1.47229H2.2749V12.7519L3.29959 10.4412H5.04062L5.61147 11.8157V10.4412H7.73204L8.37595 11.8021L9.005 10.4412H16.4812C16.7734 10.4412 17.1684 10.544 17.3449 10.8653V10.4412H18.9101V10.9384C19.115 10.661 19.4221 10.4412 20.0214 10.4412H23.2113L23.7963 11.7717V10.4412H25.6841L26.3565 11.5972V10.4412H28.0827V14.7121H26.2253L25.4495 13.4546V14.7121H23.0942L22.7141 13.8781H21.9674L21.6163 14.7121H20.1384C19.8165 14.6836 19.071 14.5511 18.9101 14.0545V14.7121H16.0719V13.7765C16.0719 13.644 15.9549 13.4837 15.7939 13.4837H15.4868V14.7121H9.44397V13.7468L8.99076 14.7121H7.76176L7.29368 13.732V14.7121H4.87964L4.55769 13.9518H3.7819L3.4457 14.7121H2.2749V28.5084H29.6045V20.0528C29.4584 20.2144 29.2244 20.3457 28.8733 20.3457H26.5899V20.0237C26.4147 20.2144 26.1664 20.3457 25.7708 20.3457H19.3342V19.4535C19.3193 19.3358 19.3781 19.0876 19.0562 19.0876H18.793V20.3457H17.0811V18.8962C16.9053 19.1903 16.5257 19.204 16.2768 19.2188H15.3692V20.3457H13.087L12.4282 19.5408L11.7261 20.3457H7.84968V16.0593H11.785L12.4722 16.8345L13.1749 16.0593H16.2911C16.5103 16.0729 16.9269 16.1757 17.0811 16.4098V16.0593H19.7441C19.9781 16.0593 20.4313 16.1609 20.622 16.468V16.0593H23.9573V16.4389C24.1325 16.2054 24.4112 16.0593 24.8347 16.0593H26.9707V16.4252C27.1317 16.1906 27.5564 16.0593 27.8053 16.0593H29.6045V16.0593ZM37.1259 15.6866C37.1259 16.2345 35.04 15.6303 35.04 16.9627C35.04 17.5713 35.5322 17.8468 36.0857 17.8468C36.5222 17.8468 36.8572 17.7564 37.1878 17.4487L37.3067 17.762H38.3586C38.2986 17.648 38.2893 17.4994 38.2893 17.3323V15.9615C38.2893 15.2619 38.2051 14.7474 36.8182 14.7474C35.6604 14.7474 35.2183 15.1108 35.2183 15.7312H36.3371C36.365 15.4798 36.5835 15.447 36.7457 15.447C36.8696 15.447 37.1259 15.4748 37.1259 15.6866V15.6866ZM43.1787 17.367V17.7589H44.2238V13.7307H43.0616V15.1238C42.8146 14.8328 42.5577 14.7436 42.1886 14.7436C41.489 14.7436 40.9466 15.3752 40.9466 16.3491C40.9466 17.1769 41.3943 17.8425 42.2778 17.8425C42.6536 17.8425 42.905 17.7254 43.1787 17.367V17.367ZM40.6451 15.7522V14.7604C40.595 14.7548 40.5442 14.7436 40.4934 14.7436C40.0415 14.7436 39.7554 14.9616 39.5932 15.421H39.582V14.8278H38.5252V17.7583H39.6879V16.6042C39.6879 15.972 39.9288 15.7479 40.4043 15.7479L40.6451 15.7522V15.7522ZM33.7014 15.2631C33.6618 14.8446 33.3987 14.6037 32.9851 14.6037C32.5207 14.6037 32.2409 15.0012 32.2409 15.7782C32.2409 16.3435 32.3641 16.8741 33.0346 16.8741C33.4606 16.8741 33.6618 16.5788 33.7126 16.1924H34.9818C34.8654 17.2326 34.1206 17.8579 33.0587 17.8579C31.7276 17.8579 30.9215 17.0431 30.9215 15.733C30.9215 14.4297 31.805 13.6187 32.93 13.6187C34.1602 13.6187 34.8487 14.2285 34.9552 15.2625H33.7014V15.2631V15.2631Z" fill="#00ACEC"/>
<path d="M14.9012 18.0629H15.9036C16.2324 18.0629 16.3494 17.8722 16.3494 17.653C16.3494 17.492 16.2435 17.2772 15.9067 17.2772H14.9012V18.0629ZM11.0093 17.2698H9.18469V17.8833H10.9579V18.5049H9.18469V19.1538H11.039L11.9244 18.165L11.1412 17.2728L11.0093 17.2698ZM18.3468 18.0195H19.3492C19.6779 18.0195 19.795 17.8728 19.795 17.653C19.795 17.492 19.6891 17.2772 19.3523 17.2772H18.3468V18.0195V18.0195ZM15.0616 12.3866H16.064C16.3934 12.3866 16.5098 12.2404 16.5098 12.0207C16.5098 11.8603 16.4039 11.6436 16.0671 11.6436H15.0616V12.3866V12.3866ZM4.66308 12.7785H3.68359L4.16405 11.6324L4.66308 12.7785ZM22.3483 11.6343L21.8691 12.7797H22.8523L22.3483 11.6343Z" fill="white"/>
<path d="M46.3885 18.6566L36.5435 28.501H37.9415L46.3885 20.0546V18.6566Z" fill="#953B3B"/>
<path d="M46.3885 21.4113L39.2993 28.5011H40.6961L46.3885 22.8099V21.4113Z" fill="#00ACEC"/>
<path d="M46.3884 24.1664L42.0525 28.501H43.4518L46.3884 25.5638V24.1664Z" fill="#6CB35E"/>
<path d="M30.6045 26.9508C30.6049 26.7463 30.6456 26.544 30.7242 26.3553C30.8029 26.1666 30.9179 25.9953 31.0628 25.851C31.2077 25.7068 31.3796 25.5926 31.5687 25.5149C31.7578 25.4371 31.9603 25.3974 32.1647 25.398C32.3687 25.3978 32.5707 25.4378 32.7592 25.5158C32.9476 25.5938 33.1189 25.7082 33.2631 25.8524C33.4073 25.9966 33.5217 26.1679 33.5997 26.3563C33.6777 26.5448 33.7177 26.7468 33.7176 26.9508C33.7184 27.1553 33.679 27.358 33.6013 27.5473C33.5237 27.7365 33.4095 27.9086 33.2652 28.0536C33.121 28.1986 32.9495 28.3137 32.7606 28.3923C32.5718 28.4709 32.3693 28.5115 32.1647 28.5116C31.9597 28.5119 31.7567 28.4717 31.5672 28.3933C31.3778 28.3149 31.2057 28.2 31.0607 28.055C30.9158 27.91 30.8009 27.7378 30.7226 27.5483C30.6443 27.3588 30.6042 27.1558 30.6045 26.9508V26.9508Z" fill="#00ACEC"/>
<path d="M33.53 26.9508C33.5301 26.7715 33.4949 26.594 33.4263 26.4283C33.3577 26.2627 33.2571 26.1122 33.1303 25.9855C33.0035 25.8587 32.853 25.7582 32.6873 25.6897C32.5217 25.6212 32.3441 25.586 32.1648 25.5862C31.9853 25.5857 31.8074 25.6206 31.6414 25.689C31.4754 25.7573 31.3244 25.8578 31.1973 25.9845C31.0701 26.1113 30.9692 26.2619 30.9004 26.4277C30.8315 26.5935 30.796 26.7712 30.7959 26.9508C30.7959 27.3133 30.9399 27.6611 31.1963 27.9174C31.4527 28.1738 31.8004 28.3178 32.163 28.3178C32.5255 28.3178 32.8733 28.1738 33.1296 27.9174C33.386 27.6611 33.53 27.3133 33.53 26.9508V26.9508Z" fill="white"/>
<path d="M32.9388 27.8231H32.6868L32.1884 27.02H31.7983V27.8231H31.5859V26.082H32.3438C32.4905 26.082 32.6372 26.0907 32.7679 26.1681C32.8985 26.2418 32.9629 26.3966 32.9629 26.5427C32.9629 26.8857 32.7233 27.012 32.4131 27.02L32.9388 27.8231V27.8231Z" fill="#00ACEC"/>
<path d="M32.1245 26.8529C32.3691 26.8529 32.748 26.8938 32.748 26.5384C32.748 26.2697 32.5115 26.2375 32.2954 26.2375H31.7988V26.8529H32.1245ZM37.1259 16.4643C37.129 17.0128 36.9606 17.1862 36.5526 17.1862C36.3229 17.1862 36.183 17.0853 36.183 16.9404C36.1836 16.559 36.7464 16.6488 37.1259 16.4643V16.4643ZM43.1007 16.3213C43.1007 16.6618 42.9725 17.0029 42.5695 17.0029C42.1899 17.0029 42.1119 16.6457 42.1119 16.3374C42.1119 16.0142 42.2178 15.6439 42.6041 15.6439C42.9892 15.6439 43.1007 15.9962 43.1007 16.3213Z" fill="white"/>
</g>
<defs>
<clipPath id="clip0_1802_326">
<rect width="47.1698" height="30" fill="white" transform="translate(0.830078)"/>
</clipPath>
</defs>
</svg>
