<svg width="53" height="21" viewBox="0 0 53 21" fill="none" xmlns="http://www.w3.org/2000/svg">
<path d="M8.9362 5.10854C9.52393 4.91263 10.1508 4.80814 10.8013 4.80814C13.6485 4.80814 16.0255 6.82994 16.5689 9.51783L20.6046 8.69501C19.6799 4.12898 15.6416 0.691406 10.8013 0.691406C9.69111 0.691406 8.62796 0.871644 7.63013 1.206L8.9362 5.10854Z" fill="#FFCB05"/>
<path d="M4.16859 18.1886L6.89827 15.1037C5.68102 14.0249 4.91305 12.4497 4.91305 10.6944C4.91305 8.94163 5.68102 7.36651 6.89827 6.29031L4.16859 3.20276C2.09977 5.03648 0.793701 7.71393 0.793701 10.6944C0.793701 13.6774 2.09977 16.3549 4.16859 18.1886" fill="#00A4E0"/>
<path d="M16.5689 11.8702C16.0229 14.5555 13.6485 16.5747 10.8039 16.5747C10.1508 16.5747 9.52132 16.4702 8.9362 16.2717L7.63013 20.1795C8.62796 20.5112 9.69372 20.6914 10.8039 20.6914C15.639 20.6914 19.6747 17.2591 20.6046 12.6983L16.5689 11.8702Z" fill="#EF4123"/>
<path d="M24.1333 15.231C24.0001 15.0168 23.8224 14.6746 23.7127 14.4212C23.0727 12.9375 23.044 11.4016 23.5821 9.92832C24.1751 8.31141 25.3087 7.07586 26.7741 6.44373C28.6157 5.65225 30.6506 5.80636 32.4164 6.85383C33.537 7.49642 34.3311 8.48903 34.9345 9.89436C35.0102 10.0746 35.0781 10.2653 35.1461 10.4299L24.1333 15.231ZM27.8112 8.82861C26.5025 9.39022 25.8286 10.6179 25.9696 12.0546L31.5073 9.66972C30.5539 8.55173 29.3158 8.1808 27.8112 8.82861V8.82861ZM32.1969 14.0163C32.1943 14.0163 32.1943 14.0189 32.1943 14.0189L32.0794 13.9406C31.7477 14.4761 31.2331 14.9123 30.5826 15.1944C29.3445 15.7325 28.1978 15.5941 27.3723 14.8705L27.2966 14.9854C27.2966 14.9854 27.2966 14.9828 27.294 14.9828L25.8886 17.0856C26.2387 17.3285 26.6122 17.5323 27.004 17.6968C28.5556 18.342 30.1438 18.3107 31.7085 17.6315C32.8395 17.1404 33.7277 16.3934 34.3337 15.4452L32.1969 14.0163ZM38.9937 3.35095V15.0377L40.8118 15.7743L39.78 18.1827L37.7739 17.3468C37.3246 17.1509 37.0164 16.8531 36.7865 16.5161C36.5645 16.174 36.3999 15.7012 36.3999 15.069V3.35095H38.9937ZM43.7008 12.0624C43.7008 11.0672 44.1423 10.1739 44.8371 9.56785L42.972 7.48858C41.7078 8.60658 40.9111 10.2392 40.9111 12.0572C40.9084 13.8779 41.7051 15.5131 42.9668 16.6311L44.8293 14.5518C44.137 13.9432 43.7008 13.0551 43.7008 12.0624V12.0624ZM47.013 15.3772C46.6473 15.3772 46.2921 15.3146 45.9629 15.2048L45.0722 17.8509C45.6808 18.0547 46.3312 18.167 47.0104 18.167C49.9621 18.1696 52.4254 16.0747 52.9974 13.2928L50.2599 12.7338C49.9491 14.2462 48.6143 15.3799 47.013 15.3772V15.3772ZM47.0208 5.95787C46.3443 5.95787 45.6939 6.06758 45.0853 6.26871L45.9682 8.91742C46.2999 8.80771 46.6525 8.74764 47.0182 8.74764C48.6221 8.75025 49.9595 9.88914 50.2625 11.4042L53 10.8504C52.4384 8.06325 49.9752 5.96048 47.0208 5.95787V5.95787Z" fill="white"/>
</svg>
